<svg width="80" height="80" viewBox="0 0 80 80" fill="none" xmlns="http://www.w3.org/2000/svg">
<path d="M32.8883 4.8037C35.8669 -0.977735 44.1331 -0.977736 47.1117 4.8037L48.15 6.81908C49.9398 10.2931 53.9775 11.9655 57.6996 10.7746L59.8588 10.0838C66.0531 8.10185 71.8982 13.9469 69.9162 20.1412L69.2254 22.3004C68.0345 26.0225 69.7069 30.0602 73.1809 31.85L75.1963 32.8883C80.9777 35.8669 80.9777 44.1331 75.1963 47.1117L73.1809 48.15C69.7069 49.9398 68.0345 53.9775 69.2254 57.6996L69.9162 59.8588C71.8982 66.0531 66.0531 71.8982 59.8588 69.9162L57.6996 69.2254C53.9775 68.0345 49.9398 69.7069 48.15 73.1809L47.1117 75.1963C44.1331 80.9777 35.8669 80.9777 32.8883 75.1963L31.85 73.1809C30.0602 69.7069 26.0225 68.0345 22.3004 69.2254L20.1412 69.9162C13.9469 71.8982 8.10185 66.0531 10.0838 59.8588L10.7746 57.6996C11.9655 53.9775 10.2931 49.9398 6.81908 48.15L4.8037 47.1117C-0.977735 44.1331 -0.977736 35.8669 4.8037 32.8883L6.81908 31.85C10.2931 30.0602 11.9655 26.0225 10.7746 22.3004L10.0838 20.1412C8.10185 13.9469 13.9469 8.10185 20.1412 10.0838L22.3004 10.7746C26.0225 11.9655 30.0602 10.2931 31.85 6.81908L32.8883 4.8037Z" fill="#71CDEA"/>
</svg>
