<svg width="157" height="246" viewBox="0 0 157 246" fill="none" xmlns="http://www.w3.org/2000/svg">
<path fill-rule="evenodd" clip-rule="evenodd" d="M156.79 48.017C156.79 63.0789 145.468 76.5211 127.752 85.3247C145.468 94.1283 156.79 107.57 156.79 122.632C156.79 137.694 145.468 151.136 127.752 159.94C145.468 168.744 156.79 182.186 156.79 197.248C156.79 223.767 121.691 245.265 78.3951 245.265C35.0987 245.265 0 223.767 0 197.248C0 182.186 11.3224 168.744 29.0383 159.94C11.3224 151.136 9.55821e-05 137.694 9.55821e-05 122.632C9.55821e-05 107.57 11.3224 94.1282 29.0384 85.3246C11.3226 76.521 0.000300826 63.0789 0.000300826 48.017C0.000300826 21.4979 35.099 0 78.3954 0C121.692 0 156.79 21.4979 156.79 48.017Z" fill="#128D9D"/>
</svg>
