<svg width="247" height="158" viewBox="0 0 247 158" fill="none" xmlns="http://www.w3.org/2000/svg">
<path d="M198.011 157.028C182.949 157.028 169.507 145.705 160.703 127.989C151.9 145.705 138.457 157.027 123.396 157.027C108.334 157.027 94.8915 145.705 86.0879 127.989C77.2843 145.705 63.8421 157.027 48.7802 157.027C22.2611 157.027 0.763182 121.929 0.763184 78.6322C0.763185 35.3358 22.2611 0.237136 48.7802 0.237137C63.8421 0.237137 77.2843 11.5595 86.0879 29.2755C94.8915 11.5596 108.334 0.237235 123.396 0.237236C138.458 0.237236 151.9 11.5596 160.703 29.2755C169.507 11.5597 182.949 0.237444 198.011 0.237444C224.53 0.237445 246.028 35.3361 246.028 78.6325C246.028 121.929 224.53 157.028 198.011 157.028Z" fill="#1B2A4A"/>
</svg>
