<svg width="48" height="48" viewBox="0 0 48 48" fill="none" xmlns="http://www.w3.org/2000/svg">
<circle cx="24" cy="24" r="24" fill="#F1F5F9"/>
<path fill-rule="evenodd" clip-rule="evenodd" d="M14 17C14 16.4477 14.4477 16 15 16H33C33.5523 16 34 16.4477 34 17C34 17.5523 33.5523 18 33 18H15C14.4477 18 14 17.5523 14 17ZM14 24C14 23.4477 14.4477 23 15 23H33C33.5523 23 34 23.4477 34 24C34 24.5523 33.5523 25 33 25H15C14.4477 25 14 24.5523 14 24ZM15 30C14.4477 30 14 30.4477 14 31C14 31.5523 14.4477 32 15 32H33C33.5523 32 34 31.5523 34 31C34 30.4477 33.5523 30 33 30H15Z" fill="#1E293B"/>
</svg>
