<svg width="221" height="21" viewBox="0 0 221 21" fill="none" xmlns="http://www.w3.org/2000/svg">
<path d="M78.8973 15.0353V11.5984H87.1832V7.93061H78.8973V3.67668H88.3288V0H73.0981V14.689C73.0981 18.4633 74.8477 20.1418 78.7641 20.1418H88.6397V16.474H80.5403C79.4746 16.474 78.9062 15.9767 78.9062 15.0353" fill="white"/>
<path d="M116.712 15.0353V11.5984H124.998V7.93061H116.712V3.67668H126.143V0H110.913V14.689C110.913 18.4633 112.662 20.1418 116.579 20.1418H126.454V16.474H118.355C117.28 16.474 116.721 15.9767 116.721 15.0353" fill="white"/>
<path d="M211.258 15.0353V11.5984H219.544V7.93061H211.258V3.67668H220.689V0H205.458V14.689C205.458 18.4633 207.208 20.1418 211.124 20.1418H221V16.474H212.901C211.826 16.474 211.267 15.9767 211.267 15.0353" fill="white"/>
<path d="M180.939 0H175.326V20.1418H180.939V0Z" fill="white"/>
<path d="M198.167 11.0922L198.363 11.0389C198.363 11.0389 202.501 10.0443 202.501 6.06563V5.78144C202.501 5.30188 202.35 1.13675 197.075 0.239783C196.143 0.0799278 195.095 0 193.798 0H185.095V20.1418H190.787V12.6375H192.413C196.143 12.6375 196.897 17.2378 197.874 20.1418H204.029C203.629 19.2537 203.309 18.7564 202.51 16.6161C200.787 11.9803 198.176 11.0922 198.176 11.0922M197.084 6.42975C197.084 7.34448 196.746 8.05495 196.134 8.41906C195.476 8.80982 194.411 8.98744 192.786 8.98744H190.77V3.59675H192.786C194.571 3.59675 195.53 3.76549 196.098 4.17401C196.773 4.65357 197.084 5.39069 197.084 6.27877V6.42975Z" fill="white"/>
<path d="M162.227 20.1507H167.946V3.67668H173.621V0H156.117V3.67668H162.227V20.1507Z" fill="white"/>
<path d="M59.5818 2.9218C58.4273 0.0444043 55.9317 0 55.914 0H52.2373V20.1418H56.8998V5.86137L57.0419 6.19884C57.0685 6.26101 59.715 12.2112 61.4201 16.5362C62.6546 19.68 63.9423 20.124 65.5764 20.1507H69.7859V0H65.1057V15.2218L59.5907 2.9218H59.5818Z" fill="white"/>
<path d="M136.508 2.9218C135.353 0.0444043 132.858 0 132.831 0H129.154V20.1418H133.817V5.86137L133.959 6.19884C133.985 6.26101 136.632 12.2112 138.337 16.5362C139.572 19.68 140.859 20.124 142.484 20.1507H146.694V0H142.014V15.2218L136.499 2.9218H136.508Z" fill="white"/>
<path d="M103.115 9.58245L110.122 0H105.22C104.27 0 103.586 0.426281 102.867 1.4831L99.9358 6.04787L97.0052 1.4831C96.2858 0.426281 95.602 0 94.6517 0H89.7495L96.8187 9.78671L96.792 9.83112L89.563 20.1507H93.6482C94.9714 20.1507 95.6553 19.8221 96.3569 18.8452L99.9358 13.1082L100.007 13.2236L103.515 18.8541C104.216 19.8221 104.891 20.1596 106.215 20.1596H110.3L103.089 9.62686L103.115 9.58245Z" fill="white"/>
<path fill-rule="evenodd" clip-rule="evenodd" d="M40.3724 0H0V2.51329H40.3724V0ZM40.3724 17.6374H0V20.1507H40.3724V17.6374ZM37.6371 12.9661V4.46707H40.3547V15.6747H39.0314H37.868C37.3529 15.6481 37.0865 15.5859 36.8289 15.4705C36.2961 15.2396 36.083 14.8754 36.0119 14.7245C35.9053 14.5025 32.8148 7.95725 32.8148 7.95725V14.0673C32.8148 14.0673 32.8326 14.7511 32.3352 15.2218C32.0599 15.4882 31.6336 15.6836 30.9676 15.6836H22.9304L20.1773 12.149L17.4243 15.6836H7.78852C7.35336 15.6747 7.01588 15.5948 6.74946 15.4793C6.21661 15.2484 6.00347 14.8843 5.93242 14.7334C5.82585 14.5113 2.73531 7.96614 2.73531 7.96614V15.6925H0V4.46707H2.15805C2.15805 4.46707 2.80635 4.43155 3.46354 4.95552C3.75661 5.19531 4.05856 5.55054 4.28946 6.08339L7.54874 12.9661V6.06563C7.54874 6.06563 7.53986 5.39957 8.03718 4.92888C8.31249 4.67133 8.73877 4.46707 9.40484 4.46707H17.3532L20.1773 8.09047L23.0014 4.46707H32.2464C32.2464 4.46707 32.8947 4.43155 33.5519 4.95552C33.845 5.19531 34.1469 5.55054 34.3778 6.08339L37.6371 12.9661ZM10.284 13.6499H15.8346V13.6588L18.5877 10.1242L15.7635 6.50079H10.284V9.05848H14.7245V11.0922H10.284V13.6499ZM30.0884 9.05848V8.88975V6.50079H24.5911L21.767 10.1242L24.5201 13.6499H30.0884V11.0922H25.6479V9.05848H30.0884Z" fill="white"/>
</svg>
