<svg width="1198" height="165" viewBox="0 0 1198 165" fill="none" xmlns="http://www.w3.org/2000/svg">
<path fill-rule="evenodd" clip-rule="evenodd" d="M1194.89 47.9453H1175.55V22.5547H1142.74V47.9453H1128.48V72.1641H1142.74V124.508C1142.55 145.895 1156.51 155.465 1179.85 155.562C1187.57 155.465 1193.04 154.879 1196.26 154.391V129.195C1195.94 129.221 1195.6 129.246 1195.26 129.271C1191.65 129.536 1187.04 129.764 1184.54 129.586C1178.97 129.488 1175.65 127.438 1175.55 120.797V72.1641H1194.89V47.9453ZM1176.55 73.1641L1176.55 120.782C1176.55 120.785 1176.55 120.788 1176.55 120.79C1176.6 123.953 1177.41 125.798 1178.66 126.895C1179.93 128.016 1181.86 128.539 1184.56 128.586L1184.58 128.587L1184.61 128.588C1187.26 128.778 1192.46 128.492 1196.18 128.198L1197.26 128.113V155.251L1196.41 155.379C1193.14 155.875 1187.62 156.464 1179.86 156.562L1179.86 156.563L1179.85 156.562C1168.07 156.513 1158.48 154.077 1151.85 148.801C1145.17 143.491 1141.64 135.429 1141.74 124.499V73.1641H1127.48V46.9453H1141.74V21.5547H1176.55V46.9453H1195.89V73.1641H1176.55Z" fill="white"/>
<path fill-rule="evenodd" clip-rule="evenodd" d="M1050.65 93.2578C1050.65 80.9531 1057.88 73.6289 1068.81 73.5312C1079.75 73.6289 1086.2 80.7578 1086.2 92.6719V154H1119.01V86.4219C1119.11 62.3984 1104.65 46.5781 1082.29 46.5781C1066.66 46.5781 1054.85 54.4883 1050.06 67.2812H1048.89V47.9453H1017.64V154H1050.65V93.2578ZM1049.89 65.0563V46.9453H1016.64V155H1051.65V93.2578C1051.65 87.3003 1053.4 82.658 1056.36 79.5013C1059.31 76.3514 1063.58 74.58 1068.81 74.5313C1074.05 74.58 1078.11 76.3046 1080.86 79.3423C1083.63 82.3933 1085.2 86.8885 1085.2 92.6719V155H1120.01V86.4259C1120.06 74.2144 1116.41 63.9932 1109.81 56.8144C1103.2 49.6275 1093.72 45.5781 1082.29 45.5781C1067.07 45.5781 1055.26 52.9389 1049.89 65.0563Z" fill="white"/>
<path fill-rule="evenodd" clip-rule="evenodd" d="M901.133 101.461C901.133 135.25 921.445 155.953 954.648 155.953C981.645 155.953 999.663 143.099 1004.05 122.969C1004.12 122.637 1004.19 122.304 1004.26 121.969H973.594C970.957 128.219 964.219 132.125 955.234 132.125C941.992 132.125 933.82 123.419 933.56 110.078C933.557 109.941 933.556 109.803 933.555 109.664V109.078H1004.65V100.68C1004.65 65.5234 983.262 46.5781 953.477 46.5781C921.641 46.5781 901.133 68.5508 901.133 101.461ZM934.56 110.078H1005.65V100.68C1005.65 82.896 1000.23 69.0965 990.941 59.7406C981.65 50.3862 968.583 45.5781 953.477 45.5781C937.319 45.5781 923.959 51.1599 914.64 60.9903C905.327 70.8151 900.133 84.7979 900.133 101.461C900.133 118.556 905.275 132.452 914.726 142.079C924.179 151.707 937.836 156.953 954.648 156.953C982.422 156.953 1001.12 143.463 1005.24 122.159L1005.47 120.969H972.93L972.672 121.58C970.236 127.355 963.943 131.125 955.234 131.125C948.775 131.125 943.656 128.986 940.138 125.295C936.689 121.677 934.689 116.474 934.56 110.078ZM933.555 89.7422C933.57 89.4064 933.592 89.073 933.622 88.7422C934.573 78.2969 942.993 70.4062 954.258 70.4062C965.25 70.4062 973.299 77.9457 973.946 88.7422C973.966 89.0725 973.979 89.4059 973.984 89.7422H933.555ZM934.627 88.7422H972.944C972.303 78.507 964.701 71.4062 954.258 71.4062C943.537 71.4062 935.571 78.8627 934.627 88.7422Z" fill="white"/>
<path fill-rule="evenodd" clip-rule="evenodd" d="M730.328 154H763.336V91.1094C763.238 80.2695 769.684 73.3359 778.766 73.3359C787.652 73.3359 793.609 79.5859 793.609 89.5469V154H825.25V90.3281C825.25 80.0742 831.012 73.3359 840.484 73.3359C849.371 73.3359 855.621 79.0977 855.523 89.9375V154H888.531V82.5156C888.531 60.0547 874.664 46.5781 854.742 46.5781C839.117 46.5781 826.812 54.6836 822.711 67.2812H821.539C818.707 54.5859 807.477 46.5781 792.828 46.5781C778.277 46.5781 767.242 54.3906 762.75 67.2812H761.578V47.9453H730.328V154ZM762.578 64.9326V46.9453H729.328V155H764.336L764.336 91.1094L764.336 91.1004C764.289 85.8787 765.817 81.6901 768.357 78.8206C770.89 75.9596 774.493 74.3359 778.766 74.3359C782.964 74.3359 786.397 75.8058 788.786 78.3855C791.182 80.9722 792.609 84.7645 792.609 89.5469V155H826.25V90.3281C826.25 85.3825 827.638 81.3908 830.064 78.6495C832.477 75.9223 836 74.3359 840.484 74.3359C844.708 74.3359 848.211 75.7002 850.649 78.2613C853.089 80.825 854.571 84.7013 854.523 89.9285V155H889.531V82.5156C889.531 71.0775 885.997 61.8269 879.827 55.4298C873.656 49.0306 864.935 45.5781 854.742 45.5781C839.276 45.5781 826.829 53.3684 822.188 65.7478C818.773 53.2822 807.348 45.5781 792.828 45.5781C778.643 45.5781 767.633 52.8311 762.578 64.9326Z" fill="white"/>
<path fill-rule="evenodd" clip-rule="evenodd" d="M645.266 93.2578C645.266 80.9531 652.492 73.6289 663.43 73.5312C674.367 73.6289 680.812 80.7578 680.812 92.6719V154H713.625V86.4219C713.723 62.3984 699.27 46.5781 676.906 46.5781C661.281 46.5781 649.465 54.4883 644.68 67.2812H643.508V47.9453H612.258V154H645.266V93.2578ZM644.508 65.0563V46.9453H611.258V155H646.266V93.2578C646.266 87.3003 648.012 82.658 650.975 79.5013C653.932 76.3514 658.193 74.58 663.43 74.5313C668.67 74.58 672.727 76.3046 675.482 79.3423C678.249 82.3933 679.812 86.8885 679.812 92.6719V155H714.625V86.4259C714.675 74.2144 711.024 63.9932 704.425 56.8144C697.818 49.6275 688.335 45.5781 676.906 45.5781C661.684 45.5781 649.877 52.9389 644.508 65.0563Z" fill="white"/>
<path fill-rule="evenodd" clip-rule="evenodd" d="M535.594 154H568.602V95.9922C568.504 83.1992 577.586 74.6055 589.891 74.7031C593.501 74.6151 598.698 75.1621 601.977 75.9864C602.334 76.0763 602.669 76.1696 602.977 76.2656V47.5547C600.242 46.9688 596.629 46.4805 593.602 46.3828C581.906 46.4803 572.545 53.1919 568.625 67.0031C568.617 67.0307 568.609 67.0583 568.602 67.086H567.625V47.9453H535.594V154ZM568.625 63.7624V46.9453H534.594V155H569.602V95.9846C569.555 89.8349 571.709 84.7559 575.297 81.2265C578.886 77.6947 583.969 75.6562 589.883 75.7031L589.899 75.7032L589.915 75.7028C593.841 75.6071 599.684 76.2844 602.678 77.2201L603.977 77.6258V46.7463L603.186 46.5769C600.401 45.98 596.728 45.4832 593.634 45.3833L593.614 45.3827L593.593 45.3829C587.538 45.4333 582.041 47.2028 577.548 50.7893C573.727 53.8399 570.68 58.1668 568.625 63.7624Z" fill="white"/>
<circle cx="455.5" cy="101.5" r="63.5" fill="#00A3FF"/>
<path fill-rule="evenodd" clip-rule="evenodd" d="M341.516 155V46.9453H376.523V155H341.516ZM342.516 154H375.523V47.9453H342.516V154Z" fill="white"/>
<path fill-rule="evenodd" clip-rule="evenodd" d="M333.82 47.9453H299.055L279.133 121.578H277.961L257.844 47.9453H223.273L259.601 154H297.297L333.82 47.9453ZM278.545 119.922L258.607 46.9453H221.874L258.887 155H298.01L335.222 46.9453H298.289L278.545 119.922Z" fill="white"/>
<path fill-rule="evenodd" clip-rule="evenodd" d="M150.516 93.2578C150.516 80.9531 157.742 73.6289 168.68 73.5312C179.617 73.6289 186.062 80.7578 186.062 92.6719V154H218.875V86.4219C218.973 62.3984 204.52 46.5781 182.156 46.5781C166.531 46.5781 154.715 54.4883 149.93 67.2812H148.758V47.9453H117.508V154H150.516V93.2578ZM149.758 65.0563V46.9453H116.508V155H151.516V93.2578C151.516 87.3003 153.262 82.658 156.225 79.5013C159.182 76.3514 163.443 74.58 168.68 74.5313C173.92 74.58 177.977 76.3046 180.732 79.3423C183.499 82.3933 185.062 86.8885 185.062 92.6719V155H219.875L219.875 86.4259C219.875 86.4247 219.875 86.4234 219.875 86.4222C219.924 74.2123 216.273 63.9925 209.675 56.8144C203.068 49.6275 193.585 45.5781 182.156 45.5781C166.934 45.5781 155.127 52.9389 149.758 65.0563Z" fill="white"/>
<path fill-rule="evenodd" clip-rule="evenodd" d="M1 101.461C1 135.25 21.3125 155.953 54.5156 155.953C81.5126 155.953 99.5303 143.099 103.919 122.969C103.992 122.637 104.06 122.304 104.125 121.969H73.4609C70.8242 128.219 64.0859 132.125 55.1016 132.125C41.8592 132.125 33.6875 123.419 33.4274 110.078C33.4247 109.941 33.4229 109.803 33.4219 109.664V109.078H104.516V100.68C104.516 65.5234 83.1289 46.5781 53.3438 46.5781C21.5078 46.5781 1 68.5508 1 101.461ZM34.4276 110.078H105.516V100.68C105.516 82.896 100.102 69.0965 90.8086 59.7406C81.5167 50.3862 68.4497 45.5781 53.3438 45.5781C37.1865 45.5781 23.8259 51.1599 14.5076 60.9903C5.19466 70.8151 0 84.7979 0 101.461C0 118.556 5.14193 132.452 14.5931 142.079C24.0464 151.707 37.7031 156.953 54.5156 156.953C82.2896 156.953 100.987 143.463 105.107 122.159L105.337 120.969H72.7975L72.5396 121.58C70.1031 127.355 63.8106 131.125 55.1016 131.125C48.6418 131.125 43.5234 128.986 40.0051 125.295C36.5558 121.677 34.556 116.474 34.4276 110.078ZM33.4219 89.7422C33.4369 89.4064 33.4595 89.073 33.4896 88.7422C34.4407 78.2969 42.8607 70.4062 54.125 70.4062C65.1168 70.4062 73.1664 77.9457 73.8131 88.7422C73.8329 89.0725 73.8458 89.4059 73.8516 89.7422H33.4219ZM34.494 88.7422H72.8112C72.1702 78.507 64.5687 71.4062 54.125 71.4062C43.4042 71.4062 35.4384 78.8627 34.494 88.7422Z" fill="white"/>
<circle cx="359" cy="20" r="20" fill="#FFF500"/>
</svg>
