<svg width="82" height="82" viewBox="0 0 82 82" fill="none" xmlns="http://www.w3.org/2000/svg">
<path d="M34.7334 4.58933C37.309 -0.584935 44.691 -0.584935 47.2666 4.58933L56.2387 22.614C56.9174 23.9776 58.0224 25.0826 59.386 25.7613L77.4107 34.7334C82.5849 37.309 82.5849 44.691 77.4107 47.2666L59.386 56.2387C58.0224 56.9174 56.9174 58.0224 56.2387 59.386L47.2666 77.4107C44.691 82.5849 37.309 82.5849 34.7334 77.4107L25.7613 59.386C25.0826 58.0224 23.9776 56.9174 22.614 56.2387L4.58933 47.2666C-0.584935 44.691 -0.584935 37.309 4.58933 34.7334L22.614 25.7613C23.9776 25.0826 25.0826 23.9776 25.7613 22.614L34.7334 4.58933Z" fill="#5CE050"/>
</svg>
