<svg width="221" height="21" viewBox="0 0 221 21" fill="none" xmlns="http://www.w3.org/2000/svg">
<path d="M40.3724 0H0V2.51328H40.3724V0Z" fill="#1E293B"/>
<path d="M40.3724 17.6374H0V20.1507H40.3724V17.6374Z" fill="#1E293B"/>
<path d="M78.8973 15.0353V11.5984H87.1832V7.93061H78.8973V3.67668H88.3288V0H73.0981V14.689C73.0981 18.4633 74.8477 20.1418 78.7641 20.1418H88.6397V16.474H80.5403C79.4746 16.474 78.9062 15.9767 78.9062 15.0353" fill="#1E293B"/>
<path d="M116.712 15.0353V11.5984H124.998V7.93061H116.712V3.67668H126.144V0H110.913V14.689C110.913 18.4633 112.662 20.1418 116.579 20.1418H126.454V16.474H118.355C117.28 16.474 116.721 15.9767 116.721 15.0353" fill="#1E293B"/>
<path d="M211.258 15.0353V11.5984H219.544V7.93061H211.258V3.67668H220.689V0H205.458V14.689C205.458 18.4633 207.208 20.1418 211.124 20.1418H221V16.474H212.901C211.826 16.474 211.267 15.9767 211.267 15.0353" fill="#1E293B"/>
<path d="M180.939 0H175.326V20.1418H180.939V0Z" fill="#1E293B"/>
<path d="M198.168 11.0922L198.363 11.0389C198.363 11.0389 202.501 10.0443 202.501 6.06563V5.78144C202.501 5.30188 202.35 1.13675 197.075 0.239783C196.143 0.0799278 195.095 0 193.798 0H185.095V20.1418H190.788V12.6375H192.413C196.143 12.6375 196.898 17.2378 197.875 20.1418H204.029C203.629 19.2537 203.31 18.7564 202.51 16.6161C200.787 11.9803 198.176 11.0922 198.176 11.0922M197.084 6.42975C197.084 7.34448 196.747 8.05494 196.134 8.41906C195.477 8.80982 194.411 8.98744 192.786 8.98744H190.77V3.59675H192.786C194.571 3.59675 195.53 3.76549 196.098 4.17401C196.773 4.65357 197.084 5.39069 197.084 6.27877V6.42975Z" fill="#1E293B"/>
<path d="M162.227 20.1507H167.946V3.67668H173.621V0H156.117V3.67668H162.227V20.1507Z" fill="#1E293B"/>
<path d="M59.582 2.9218C58.4275 0.0444043 55.932 0 55.9142 0H52.2375V20.1418H56.9V5.86137L57.0421 6.19884C57.0687 6.26101 59.7152 12.2112 61.4204 16.5362C62.6548 19.68 63.9425 20.124 65.5766 20.1507H69.7861V0H65.1059V15.2218L59.5909 2.9218H59.582Z" fill="#1E293B"/>
<path d="M136.507 2.9218C135.353 0.0444043 132.857 0 132.831 0H129.154V20.1418H133.817V5.86137L133.959 6.19884C133.985 6.26101 136.632 12.2112 138.337 16.5362C139.571 19.68 140.859 20.124 142.484 20.1507H146.694V0H142.014V15.2218L136.499 2.9218H136.507Z" fill="#1E293B"/>
<path d="M103.115 9.58245L110.122 0H105.22C104.27 0 103.586 0.426281 102.867 1.4831L99.9361 6.04787L97.0054 1.4831C96.2861 0.426281 95.6022 0 94.652 0H89.7497L96.8189 9.78671L96.7923 9.83112L89.5632 20.1507H93.6484C94.9717 20.1507 95.6555 19.8221 96.3571 18.8452L99.9361 13.1082L100.007 13.2236L103.515 18.8541C104.217 19.8221 104.892 20.1596 106.215 20.1596H110.3L103.089 9.62686L103.115 9.58245Z" fill="#1E293B"/>
<path d="M37.6371 4.46707V12.9661L34.3778 6.08339C34.1469 5.55054 33.845 5.19531 33.5519 4.95552C32.8947 4.43155 32.2464 4.46707 32.2464 4.46707H23.0014L20.1773 8.09047L17.3532 4.46707H9.40484C8.73877 4.46707 8.31249 4.67133 8.03718 4.92888C7.53986 5.39957 7.54874 6.06563 7.54874 6.06563V12.9661L4.28946 6.08339C4.05856 5.55054 3.75661 5.19531 3.46354 4.95552C2.80635 4.43155 2.15805 4.46707 2.15805 4.46707H0V15.6925H2.73531V7.96614C2.73531 7.96614 5.82585 14.5113 5.93242 14.7334C6.00347 14.8843 6.21661 15.2484 6.74946 15.4793C7.01588 15.5948 7.35336 15.6747 7.78852 15.6836H17.4243L20.1773 12.149L22.9304 15.6836H30.9676C31.6336 15.6836 32.0599 15.4882 32.3352 15.2218C32.8326 14.7511 32.8148 14.0673 32.8148 14.0673V7.95725C32.8148 7.95725 35.9053 14.5025 36.0119 14.7245C36.083 14.8754 36.2961 15.2396 36.8289 15.4705C37.0865 15.5859 37.3529 15.6481 37.868 15.6747C37.868 15.6747 38.4364 15.6747 39.0314 15.6747C39.6797 15.6747 40.3547 15.6747 40.3547 15.6747V4.46707H37.6282H37.6371ZM15.8346 13.6499H10.284V11.0922H14.7245V9.05848H10.284V6.50079H15.7635L18.5877 10.1242L15.8346 13.6588V13.6499ZM30.0884 8.88975V9.05848H25.6479V11.0922H30.0884V13.6499H24.5201L21.767 10.1242L24.5911 6.50079H30.0884V8.88975Z" fill="#1E293B"/>
</svg>
